<mxfile host="app.diagrams.net" modified="2022-02-17T04:48:38.380Z" agent="5.0 (Windows NT 10.0; Win64; x64) AppleWebKit/537.36 (KHTML, like Gecko) Chrome/98.0.4758.82 Safari/537.36" etag="7FEM-mA9TYV90FFOKUud" version="16.5.6" type="github">
  <diagram id="C5RBs43oDa-KdzZeNtuy" name="Page-1">
    <mxGraphModel dx="694" dy="360" grid="1" gridSize="10" guides="1" tooltips="1" connect="1" arrows="1" fold="1" page="1" pageScale="1" pageWidth="827" pageHeight="1169" math="0" shadow="0">
      <root>
        <mxCell id="WIyWlLk6GJQsqaUBKTNV-0" />
        <mxCell id="WIyWlLk6GJQsqaUBKTNV-1" parent="WIyWlLk6GJQsqaUBKTNV-0" />
        <mxCell id="WIyWlLk6GJQsqaUBKTNV-2" value="" style="rounded=0;html=1;jettySize=auto;orthogonalLoop=1;fontSize=11;endArrow=block;endFill=0;endSize=8;strokeWidth=1;shadow=0;labelBackgroundColor=none;edgeStyle=orthogonalEdgeStyle;" parent="WIyWlLk6GJQsqaUBKTNV-1" source="WIyWlLk6GJQsqaUBKTNV-3" target="8050uvYozBo5ubYNL5DY-0" edge="1">
          <mxGeometry relative="1" as="geometry">
            <Array as="points">
              <mxPoint x="130" y="250" />
              <mxPoint x="130" y="250" />
            </Array>
          </mxGeometry>
        </mxCell>
        <mxCell id="WIyWlLk6GJQsqaUBKTNV-3" value="Início" style="rounded=1;whiteSpace=wrap;html=1;fontSize=12;glass=0;strokeWidth=1;shadow=0;fillColor=#1ba1e2;strokeColor=#006EAF;fontColor=#ffffff;" parent="WIyWlLk6GJQsqaUBKTNV-1" vertex="1">
          <mxGeometry x="70" y="165.75" width="120" height="40" as="geometry" />
        </mxCell>
        <mxCell id="WIyWlLk6GJQsqaUBKTNV-4" value="" style="rounded=0;html=1;jettySize=auto;orthogonalLoop=1;fontSize=11;endArrow=block;endFill=0;endSize=8;strokeWidth=1;shadow=0;labelBackgroundColor=none;edgeStyle=orthogonalEdgeStyle;" parent="WIyWlLk6GJQsqaUBKTNV-1" source="8050uvYozBo5ubYNL5DY-3" target="WIyWlLk6GJQsqaUBKTNV-10" edge="1">
          <mxGeometry x="0.0909" y="20" relative="1" as="geometry">
            <mxPoint as="offset" />
            <mxPoint x="450" y="642" as="sourcePoint" />
          </mxGeometry>
        </mxCell>
        <mxCell id="WIyWlLk6GJQsqaUBKTNV-8" value="Não" style="rounded=0;html=1;jettySize=auto;orthogonalLoop=1;fontSize=11;endArrow=block;endFill=0;endSize=8;strokeWidth=1;shadow=0;labelBackgroundColor=none;edgeStyle=orthogonalEdgeStyle;" parent="WIyWlLk6GJQsqaUBKTNV-1" source="WIyWlLk6GJQsqaUBKTNV-10" target="8050uvYozBo5ubYNL5DY-8" edge="1">
          <mxGeometry x="0.3333" y="20" relative="1" as="geometry">
            <mxPoint as="offset" />
            <mxPoint x="298" y="562" as="targetPoint" />
          </mxGeometry>
        </mxCell>
        <mxCell id="WIyWlLk6GJQsqaUBKTNV-9" value="Sim" style="edgeStyle=orthogonalEdgeStyle;rounded=0;html=1;jettySize=auto;orthogonalLoop=1;fontSize=11;endArrow=block;endFill=0;endSize=8;strokeWidth=1;shadow=0;labelBackgroundColor=none;" parent="WIyWlLk6GJQsqaUBKTNV-1" source="WIyWlLk6GJQsqaUBKTNV-10" target="8050uvYozBo5ubYNL5DY-7" edge="1">
          <mxGeometry x="0.0084" y="15" relative="1" as="geometry">
            <mxPoint as="offset" />
            <mxPoint x="460" y="362" as="targetPoint" />
          </mxGeometry>
        </mxCell>
        <mxCell id="WIyWlLk6GJQsqaUBKTNV-10" value="&lt;br&gt;num_menu é igual a 1?" style="rhombus;whiteSpace=wrap;html=1;shadow=0;fontFamily=Helvetica;fontSize=12;align=center;strokeWidth=1;spacing=6;spacingTop=-4;fillColor=#dae8fc;strokeColor=#6c8ebf;verticalAlign=middle;" parent="WIyWlLk6GJQsqaUBKTNV-1" vertex="1">
          <mxGeometry x="310" y="397" width="110" height="80" as="geometry" />
        </mxCell>
        <mxCell id="8050uvYozBo5ubYNL5DY-0" value="&lt;b&gt;&lt;font style=&quot;font-size: 13px&quot;&gt;Sistema de evento&lt;/font&gt;&lt;/b&gt;&lt;br&gt;Digite o número da opção desejada:&lt;br&gt;1- Cadastrar novo evento&lt;br&gt;2- Cadastrar participante/palestrante&lt;br&gt;3- Lista de participantes por evento&amp;nbsp;&lt;br&gt;4- Sair" style="shape=display;whiteSpace=wrap;html=1;align=center;fillColor=#f5f5f5;fontColor=#333333;strokeColor=#666666;" vertex="1" parent="WIyWlLk6GJQsqaUBKTNV-1">
          <mxGeometry x="10" y="272" width="290" height="90" as="geometry" />
        </mxCell>
        <mxCell id="8050uvYozBo5ubYNL5DY-3" value="num_menu" style="shape=manualInput;whiteSpace=wrap;html=1;fontSize=13;verticalAlign=bottom;fillColor=#f8cecc;strokeColor=#b85450;" vertex="1" parent="WIyWlLk6GJQsqaUBKTNV-1">
          <mxGeometry x="110" y="412" width="90" height="50" as="geometry" />
        </mxCell>
        <mxCell id="8050uvYozBo5ubYNL5DY-5" value="" style="rounded=0;html=1;jettySize=auto;orthogonalLoop=1;fontSize=11;endArrow=block;endFill=0;endSize=8;strokeWidth=1;shadow=0;labelBackgroundColor=none;edgeStyle=orthogonalEdgeStyle;" edge="1" parent="WIyWlLk6GJQsqaUBKTNV-1" source="8050uvYozBo5ubYNL5DY-0" target="8050uvYozBo5ubYNL5DY-3">
          <mxGeometry relative="1" as="geometry">
            <mxPoint x="267.5" y="242" as="sourcePoint" />
            <mxPoint x="267.5" y="282" as="targetPoint" />
          </mxGeometry>
        </mxCell>
        <mxCell id="8050uvYozBo5ubYNL5DY-7" value="Informe a data do evento&amp;nbsp;" style="shape=display;whiteSpace=wrap;html=1;fontSize=13;align=right;fillColor=#f5f5f5;fontColor=#333333;strokeColor=#666666;" vertex="1" parent="WIyWlLk6GJQsqaUBKTNV-1">
          <mxGeometry x="280" y="225.75" width="170" height="40" as="geometry" />
        </mxCell>
        <mxCell id="8050uvYozBo5ubYNL5DY-8" value="&lt;br&gt;num_menu é igual a 2?" style="rhombus;whiteSpace=wrap;html=1;shadow=0;fontFamily=Helvetica;fontSize=12;align=center;strokeWidth=1;spacing=6;spacingTop=-4;fillColor=#dae8fc;strokeColor=#6c8ebf;verticalAlign=middle;" vertex="1" parent="WIyWlLk6GJQsqaUBKTNV-1">
          <mxGeometry x="310" y="550" width="110" height="80" as="geometry" />
        </mxCell>
        <mxCell id="8050uvYozBo5ubYNL5DY-9" value="Sim" style="edgeStyle=orthogonalEdgeStyle;rounded=0;html=1;jettySize=auto;orthogonalLoop=1;fontSize=11;endArrow=block;endFill=0;endSize=8;strokeWidth=1;shadow=0;labelBackgroundColor=none;" edge="1" parent="WIyWlLk6GJQsqaUBKTNV-1" target="8050uvYozBo5ubYNL5DY-10" source="8050uvYozBo5ubYNL5DY-8">
          <mxGeometry x="0.0084" y="15" relative="1" as="geometry">
            <mxPoint as="offset" />
            <mxPoint x="370" y="765" as="sourcePoint" />
            <mxPoint x="487.5" y="672" as="targetPoint" />
          </mxGeometry>
        </mxCell>
        <mxCell id="8050uvYozBo5ubYNL5DY-10" value="Informe a idade&amp;nbsp;" style="shape=display;whiteSpace=wrap;html=1;fontSize=13;align=right;fillColor=#f5f5f5;fontColor=#333333;strokeColor=#666666;" vertex="1" parent="WIyWlLk6GJQsqaUBKTNV-1">
          <mxGeometry x="481" y="570" width="110" height="40" as="geometry" />
        </mxCell>
        <mxCell id="8050uvYozBo5ubYNL5DY-11" value="Não" style="rounded=0;html=1;jettySize=auto;orthogonalLoop=1;fontSize=11;endArrow=block;endFill=0;endSize=8;strokeWidth=1;shadow=0;labelBackgroundColor=none;edgeStyle=orthogonalEdgeStyle;" edge="1" parent="WIyWlLk6GJQsqaUBKTNV-1" target="8050uvYozBo5ubYNL5DY-12" source="8050uvYozBo5ubYNL5DY-8">
          <mxGeometry x="0.3333" y="20" relative="1" as="geometry">
            <mxPoint as="offset" />
            <mxPoint x="297.5" y="642" as="sourcePoint" />
            <mxPoint x="298" y="712" as="targetPoint" />
          </mxGeometry>
        </mxCell>
        <mxCell id="8050uvYozBo5ubYNL5DY-12" value="&lt;br&gt;num_menu é igual a 3?" style="rhombus;whiteSpace=wrap;html=1;shadow=0;fontFamily=Helvetica;fontSize=12;align=center;strokeWidth=1;spacing=6;spacingTop=-4;fillColor=#dae8fc;strokeColor=#6c8ebf;verticalAlign=middle;" vertex="1" parent="WIyWlLk6GJQsqaUBKTNV-1">
          <mxGeometry x="310" y="700" width="110" height="80" as="geometry" />
        </mxCell>
        <mxCell id="8050uvYozBo5ubYNL5DY-13" value="Sim" style="edgeStyle=orthogonalEdgeStyle;rounded=0;html=1;jettySize=auto;orthogonalLoop=1;fontSize=11;endArrow=block;endFill=0;endSize=8;strokeWidth=1;shadow=0;labelBackgroundColor=none;" edge="1" parent="WIyWlLk6GJQsqaUBKTNV-1" target="8050uvYozBo5ubYNL5DY-14" source="8050uvYozBo5ubYNL5DY-12">
          <mxGeometry x="0.0084" y="15" relative="1" as="geometry">
            <mxPoint as="offset" />
            <mxPoint x="352.5" y="752" as="sourcePoint" />
            <mxPoint x="487.5" y="822" as="targetPoint" />
          </mxGeometry>
        </mxCell>
        <mxCell id="8050uvYozBo5ubYNL5DY-14" value="Exibe lista de eventos.&lt;br&gt;Digite o número correspondente ao evento desejado" style="shape=display;whiteSpace=wrap;html=1;fontSize=13;align=right;fillColor=#f5f5f5;fontColor=#333333;strokeColor=#666666;" vertex="1" parent="WIyWlLk6GJQsqaUBKTNV-1">
          <mxGeometry x="470" y="705" width="219" height="70" as="geometry" />
        </mxCell>
        <mxCell id="8050uvYozBo5ubYNL5DY-15" value="Fim" style="ellipse;whiteSpace=wrap;html=1;fontSize=13;fillColor=#1ba1e2;strokeColor=#006EAF;fontColor=#ffffff;" vertex="1" parent="WIyWlLk6GJQsqaUBKTNV-1">
          <mxGeometry x="326.5" y="992" width="77" height="40" as="geometry" />
        </mxCell>
        <mxCell id="8050uvYozBo5ubYNL5DY-16" value="Não" style="rounded=0;html=1;jettySize=auto;orthogonalLoop=1;fontSize=11;endArrow=block;endFill=0;endSize=8;strokeWidth=1;shadow=0;labelBackgroundColor=none;edgeStyle=orthogonalEdgeStyle;" edge="1" parent="WIyWlLk6GJQsqaUBKTNV-1" target="8050uvYozBo5ubYNL5DY-17" source="8050uvYozBo5ubYNL5DY-12">
          <mxGeometry x="0.3333" y="20" relative="1" as="geometry">
            <mxPoint as="offset" />
            <mxPoint x="297.5" y="792" as="sourcePoint" />
            <mxPoint x="298" y="862" as="targetPoint" />
          </mxGeometry>
        </mxCell>
        <mxCell id="8050uvYozBo5ubYNL5DY-17" value="&lt;br&gt;num_menu é igual a 4?" style="rhombus;whiteSpace=wrap;html=1;shadow=0;fontFamily=Helvetica;fontSize=12;align=center;strokeWidth=1;spacing=6;spacingTop=-4;fillColor=#dae8fc;strokeColor=#6c8ebf;verticalAlign=middle;" vertex="1" parent="WIyWlLk6GJQsqaUBKTNV-1">
          <mxGeometry x="310" y="842" width="110" height="80" as="geometry" />
        </mxCell>
        <mxCell id="8050uvYozBo5ubYNL5DY-18" value="Opção incorreta, &lt;br&gt;selecione uma opção válida!" style="shape=display;whiteSpace=wrap;html=1;fontSize=13;align=right;verticalAlign=middle;fillColor=#f5f5f5;strokeColor=#666666;fontColor=#333333;" vertex="1" parent="WIyWlLk6GJQsqaUBKTNV-1">
          <mxGeometry x="20" y="852" width="182.5" height="60" as="geometry" />
        </mxCell>
        <mxCell id="8050uvYozBo5ubYNL5DY-19" value="Não" style="rounded=0;html=1;jettySize=auto;orthogonalLoop=1;fontSize=11;endArrow=block;endFill=0;endSize=8;strokeWidth=1;shadow=0;labelBackgroundColor=none;edgeStyle=orthogonalEdgeStyle;" edge="1" parent="WIyWlLk6GJQsqaUBKTNV-1" source="8050uvYozBo5ubYNL5DY-17" target="8050uvYozBo5ubYNL5DY-18">
          <mxGeometry x="0.3333" y="20" relative="1" as="geometry">
            <mxPoint as="offset" />
            <mxPoint x="307.5" y="802" as="sourcePoint" />
            <mxPoint x="307.5" y="872" as="targetPoint" />
          </mxGeometry>
        </mxCell>
        <mxCell id="8050uvYozBo5ubYNL5DY-20" value="" style="rounded=0;html=1;jettySize=auto;orthogonalLoop=1;fontSize=11;endArrow=block;endFill=0;endSize=8;strokeWidth=1;shadow=0;labelBackgroundColor=none;edgeStyle=orthogonalEdgeStyle;" edge="1" parent="WIyWlLk6GJQsqaUBKTNV-1" source="8050uvYozBo5ubYNL5DY-18" target="8050uvYozBo5ubYNL5DY-0">
          <mxGeometry relative="1" as="geometry">
            <mxPoint x="192.4799999999999" y="467" as="sourcePoint" />
            <mxPoint x="145.03999999999996" y="532" as="targetPoint" />
            <Array as="points">
              <mxPoint x="90" y="742" />
              <mxPoint x="90" y="742" />
            </Array>
          </mxGeometry>
        </mxCell>
        <mxCell id="8050uvYozBo5ubYNL5DY-21" value="Sim" style="edgeStyle=orthogonalEdgeStyle;rounded=0;html=1;jettySize=auto;orthogonalLoop=1;fontSize=11;endArrow=block;endFill=0;endSize=8;strokeWidth=1;shadow=0;labelBackgroundColor=none;" edge="1" parent="WIyWlLk6GJQsqaUBKTNV-1" source="8050uvYozBo5ubYNL5DY-17" target="8050uvYozBo5ubYNL5DY-15">
          <mxGeometry x="0.0084" y="15" relative="1" as="geometry">
            <mxPoint as="offset" />
            <mxPoint x="362.5" y="762" as="sourcePoint" />
            <mxPoint x="470" y="817.04" as="targetPoint" />
          </mxGeometry>
        </mxCell>
        <mxCell id="8050uvYozBo5ubYNL5DY-22" value="" style="rounded=0;html=1;jettySize=auto;orthogonalLoop=1;fontSize=11;endArrow=block;endFill=0;endSize=8;strokeWidth=1;shadow=0;labelBackgroundColor=none;edgeStyle=orthogonalEdgeStyle;" edge="1" parent="WIyWlLk6GJQsqaUBKTNV-1" source="8050uvYozBo5ubYNL5DY-24" target="8050uvYozBo5ubYNL5DY-23">
          <mxGeometry x="0.0909" y="20" relative="1" as="geometry">
            <mxPoint as="offset" />
            <mxPoint x="958.5" y="402" as="sourcePoint" />
          </mxGeometry>
        </mxCell>
        <mxCell id="8050uvYozBo5ubYNL5DY-23" value="A data_evento é posterior a atual?" style="rhombus;whiteSpace=wrap;html=1;shadow=0;fontFamily=Helvetica;fontSize=12;align=center;strokeWidth=1;spacing=6;spacingTop=-4;fillColor=#dae8fc;strokeColor=#6c8ebf;verticalAlign=middle;" vertex="1" parent="WIyWlLk6GJQsqaUBKTNV-1">
          <mxGeometry x="630" y="205.75" width="140" height="80" as="geometry" />
        </mxCell>
        <mxCell id="8050uvYozBo5ubYNL5DY-24" value="data_evento" style="shape=manualInput;whiteSpace=wrap;html=1;fontSize=13;verticalAlign=bottom;fillColor=#f8cecc;strokeColor=#b85450;" vertex="1" parent="WIyWlLk6GJQsqaUBKTNV-1">
          <mxGeometry x="491" y="220.75" width="90" height="50" as="geometry" />
        </mxCell>
        <mxCell id="8050uvYozBo5ubYNL5DY-25" value="" style="rounded=0;html=1;jettySize=auto;orthogonalLoop=1;fontSize=11;endArrow=block;endFill=0;endSize=8;strokeWidth=1;shadow=0;labelBackgroundColor=none;edgeStyle=orthogonalEdgeStyle;" edge="1" parent="WIyWlLk6GJQsqaUBKTNV-1" target="8050uvYozBo5ubYNL5DY-24" source="8050uvYozBo5ubYNL5DY-7">
          <mxGeometry relative="1" as="geometry">
            <mxPoint x="540" y="227" as="sourcePoint" />
            <mxPoint x="776" y="42" as="targetPoint" />
          </mxGeometry>
        </mxCell>
        <mxCell id="8050uvYozBo5ubYNL5DY-28" value="Cadastro não permitido por data inválida. Essa data já passou." style="shape=display;whiteSpace=wrap;html=1;fontSize=13;align=right;fillColor=#f5f5f5;fontColor=#333333;strokeColor=#666666;" vertex="1" parent="WIyWlLk6GJQsqaUBKTNV-1">
          <mxGeometry x="810" y="212" width="130" height="67.5" as="geometry" />
        </mxCell>
        <mxCell id="8050uvYozBo5ubYNL5DY-29" value="Não" style="rounded=0;html=1;jettySize=auto;orthogonalLoop=1;fontSize=11;endArrow=block;endFill=0;endSize=8;strokeWidth=1;shadow=0;labelBackgroundColor=none;edgeStyle=orthogonalEdgeStyle;" edge="1" parent="WIyWlLk6GJQsqaUBKTNV-1" source="8050uvYozBo5ubYNL5DY-23" target="8050uvYozBo5ubYNL5DY-28">
          <mxGeometry x="0.3333" y="20" relative="1" as="geometry">
            <mxPoint as="offset" />
            <mxPoint x="598.5" y="287" as="sourcePoint" />
            <mxPoint x="598.5" y="357" as="targetPoint" />
          </mxGeometry>
        </mxCell>
        <mxCell id="8050uvYozBo5ubYNL5DY-30" value="" style="rounded=0;html=1;jettySize=auto;orthogonalLoop=1;fontSize=11;endArrow=block;endFill=0;endSize=8;strokeWidth=1;shadow=0;labelBackgroundColor=none;edgeStyle=orthogonalEdgeStyle;" edge="1" parent="WIyWlLk6GJQsqaUBKTNV-1" source="8050uvYozBo5ubYNL5DY-28" target="8050uvYozBo5ubYNL5DY-7">
          <mxGeometry x="0.0909" y="20" relative="1" as="geometry">
            <mxPoint as="offset" />
            <mxPoint x="570" y="237" as="sourcePoint" />
            <mxPoint x="620" y="237" as="targetPoint" />
            <Array as="points">
              <mxPoint x="875" y="162" />
              <mxPoint x="365" y="162" />
            </Array>
          </mxGeometry>
        </mxCell>
        <mxCell id="8050uvYozBo5ubYNL5DY-31" value="Sim" style="edgeStyle=orthogonalEdgeStyle;rounded=0;html=1;jettySize=auto;orthogonalLoop=1;fontSize=11;endArrow=block;endFill=0;endSize=8;strokeWidth=1;shadow=0;labelBackgroundColor=none;" edge="1" parent="WIyWlLk6GJQsqaUBKTNV-1" target="8050uvYozBo5ubYNL5DY-32" source="8050uvYozBo5ubYNL5DY-23">
          <mxGeometry x="0.0084" y="15" relative="1" as="geometry">
            <mxPoint as="offset" />
            <mxPoint x="520" y="332" as="sourcePoint" />
            <mxPoint x="625" y="402" as="targetPoint" />
          </mxGeometry>
        </mxCell>
        <mxCell id="8050uvYozBo5ubYNL5DY-32" value="Informe o nome do evento&amp;nbsp;" style="shape=display;whiteSpace=wrap;html=1;fontSize=13;align=right;fillColor=#f5f5f5;fontColor=#333333;strokeColor=#666666;" vertex="1" parent="WIyWlLk6GJQsqaUBKTNV-1">
          <mxGeometry x="645" y="362" width="110" height="40" as="geometry" />
        </mxCell>
        <mxCell id="8050uvYozBo5ubYNL5DY-33" value="nome_evento" style="shape=manualInput;whiteSpace=wrap;html=1;fontSize=13;verticalAlign=bottom;fillColor=#f8cecc;strokeColor=#b85450;" vertex="1" parent="WIyWlLk6GJQsqaUBKTNV-1">
          <mxGeometry x="800" y="357" width="90" height="50" as="geometry" />
        </mxCell>
        <mxCell id="8050uvYozBo5ubYNL5DY-34" value="" style="rounded=0;html=1;jettySize=auto;orthogonalLoop=1;fontSize=11;endArrow=block;endFill=0;endSize=8;strokeWidth=1;shadow=0;labelBackgroundColor=none;edgeStyle=orthogonalEdgeStyle;" edge="1" parent="WIyWlLk6GJQsqaUBKTNV-1" target="8050uvYozBo5ubYNL5DY-33" source="8050uvYozBo5ubYNL5DY-32">
          <mxGeometry relative="1" as="geometry">
            <mxPoint x="735" y="332" as="sourcePoint" />
            <mxPoint x="1098.5" y="147" as="targetPoint" />
          </mxGeometry>
        </mxCell>
        <mxCell id="8050uvYozBo5ubYNL5DY-35" value="Cadastro de Evento realizado!&amp;nbsp;" style="shape=display;whiteSpace=wrap;html=1;fontSize=13;align=right;fillColor=#f5f5f5;fontColor=#333333;strokeColor=#666666;" vertex="1" parent="WIyWlLk6GJQsqaUBKTNV-1">
          <mxGeometry x="930" y="357" width="150" height="50" as="geometry" />
        </mxCell>
        <mxCell id="8050uvYozBo5ubYNL5DY-36" value="" style="rounded=0;html=1;jettySize=auto;orthogonalLoop=1;fontSize=11;endArrow=block;endFill=0;endSize=8;strokeWidth=1;shadow=0;labelBackgroundColor=none;edgeStyle=orthogonalEdgeStyle;" edge="1" parent="WIyWlLk6GJQsqaUBKTNV-1" source="8050uvYozBo5ubYNL5DY-33" target="8050uvYozBo5ubYNL5DY-35">
          <mxGeometry relative="1" as="geometry">
            <mxPoint x="745" y="342" as="sourcePoint" />
            <mxPoint x="802.5" y="342" as="targetPoint" />
          </mxGeometry>
        </mxCell>
        <mxCell id="8050uvYozBo5ubYNL5DY-38" value="" style="rounded=0;html=1;jettySize=auto;orthogonalLoop=1;fontSize=11;endArrow=block;endFill=0;endSize=8;strokeWidth=1;shadow=0;labelBackgroundColor=none;edgeStyle=orthogonalEdgeStyle;exitX=0;exitY=0;exitDx=81.25;exitDy=0;exitPerimeter=0;" edge="1" parent="WIyWlLk6GJQsqaUBKTNV-1" source="8050uvYozBo5ubYNL5DY-35" target="8050uvYozBo5ubYNL5DY-0">
          <mxGeometry x="0.0909" y="20" relative="1" as="geometry">
            <mxPoint as="offset" />
            <mxPoint x="885.04" y="203.25" as="sourcePoint" />
            <mxPoint x="338" y="217" as="targetPoint" />
            <Array as="points">
              <mxPoint x="1011" y="140" />
              <mxPoint x="270" y="140" />
            </Array>
          </mxGeometry>
        </mxCell>
        <mxCell id="8050uvYozBo5ubYNL5DY-39" value="idade_participante" style="shape=manualInput;whiteSpace=wrap;html=1;fontSize=13;verticalAlign=bottom;fillColor=#f8cecc;strokeColor=#b85450;" vertex="1" parent="WIyWlLk6GJQsqaUBKTNV-1">
          <mxGeometry x="476.5" y="475" width="119" height="50" as="geometry" />
        </mxCell>
        <mxCell id="8050uvYozBo5ubYNL5DY-40" value="" style="rounded=0;html=1;jettySize=auto;orthogonalLoop=1;fontSize=11;endArrow=block;endFill=0;endSize=8;strokeWidth=1;shadow=0;labelBackgroundColor=none;edgeStyle=orthogonalEdgeStyle;" edge="1" parent="WIyWlLk6GJQsqaUBKTNV-1" target="8050uvYozBo5ubYNL5DY-39" source="8050uvYozBo5ubYNL5DY-10">
          <mxGeometry relative="1" as="geometry">
            <mxPoint x="460" y="495" as="sourcePoint" />
            <mxPoint x="786" y="291.25" as="targetPoint" />
          </mxGeometry>
        </mxCell>
        <mxCell id="8050uvYozBo5ubYNL5DY-41" value="" style="rounded=0;html=1;jettySize=auto;orthogonalLoop=1;fontSize=11;endArrow=block;endFill=0;endSize=8;strokeWidth=1;shadow=0;labelBackgroundColor=none;edgeStyle=orthogonalEdgeStyle;" edge="1" parent="WIyWlLk6GJQsqaUBKTNV-1" target="8050uvYozBo5ubYNL5DY-42" source="8050uvYozBo5ubYNL5DY-39">
          <mxGeometry x="0.0909" y="20" relative="1" as="geometry">
            <mxPoint as="offset" />
            <mxPoint x="595.5" y="502" as="sourcePoint" />
          </mxGeometry>
        </mxCell>
        <mxCell id="8050uvYozBo5ubYNL5DY-42" value="A idade_participante é maior ou igual que 18??" style="rhombus;whiteSpace=wrap;html=1;shadow=0;fontFamily=Helvetica;fontSize=12;align=center;strokeWidth=1;spacing=6;spacingTop=-4;fillColor=#dae8fc;strokeColor=#6c8ebf;verticalAlign=middle;" vertex="1" parent="WIyWlLk6GJQsqaUBKTNV-1">
          <mxGeometry x="645" y="450" width="145.5" height="100" as="geometry" />
        </mxCell>
        <mxCell id="8050uvYozBo5ubYNL5DY-43" value="Cadastro não permitido pela idade. Tem que ser maior de 18 anos." style="shape=display;whiteSpace=wrap;html=1;fontSize=13;align=right;fillColor=#f5f5f5;fontColor=#333333;strokeColor=#666666;" vertex="1" parent="WIyWlLk6GJQsqaUBKTNV-1">
          <mxGeometry x="652.06" y="610" width="131.38" height="67.5" as="geometry" />
        </mxCell>
        <mxCell id="8050uvYozBo5ubYNL5DY-44" value="Não" style="rounded=0;html=1;jettySize=auto;orthogonalLoop=1;fontSize=11;endArrow=block;endFill=0;endSize=8;strokeWidth=1;shadow=0;labelBackgroundColor=none;edgeStyle=orthogonalEdgeStyle;" edge="1" parent="WIyWlLk6GJQsqaUBKTNV-1" target="8050uvYozBo5ubYNL5DY-43" source="8050uvYozBo5ubYNL5DY-42">
          <mxGeometry x="0.3333" y="20" relative="1" as="geometry">
            <mxPoint as="offset" />
            <mxPoint x="629.8425000000002" y="603.8399999999999" as="sourcePoint" />
            <mxPoint x="458.5" y="715" as="targetPoint" />
          </mxGeometry>
        </mxCell>
        <mxCell id="8050uvYozBo5ubYNL5DY-45" value="" style="rounded=0;html=1;jettySize=auto;orthogonalLoop=1;fontSize=11;endArrow=block;endFill=0;endSize=8;strokeWidth=1;shadow=0;labelBackgroundColor=none;edgeStyle=orthogonalEdgeStyle;" edge="1" parent="WIyWlLk6GJQsqaUBKTNV-1" source="8050uvYozBo5ubYNL5DY-43" target="8050uvYozBo5ubYNL5DY-10">
          <mxGeometry relative="1" as="geometry">
            <mxPoint x="546" y="580" as="sourcePoint" />
            <mxPoint x="546" y="535" as="targetPoint" />
            <Array as="points">
              <mxPoint x="536" y="644" />
            </Array>
          </mxGeometry>
        </mxCell>
        <mxCell id="8050uvYozBo5ubYNL5DY-46" value="Sim" style="edgeStyle=orthogonalEdgeStyle;rounded=0;html=1;jettySize=auto;orthogonalLoop=1;fontSize=11;endArrow=block;endFill=0;endSize=8;strokeWidth=1;shadow=0;labelBackgroundColor=none;" edge="1" parent="WIyWlLk6GJQsqaUBKTNV-1" target="8050uvYozBo5ubYNL5DY-47" source="8050uvYozBo5ubYNL5DY-42">
          <mxGeometry x="0.0084" y="15" relative="1" as="geometry">
            <mxPoint as="offset" />
            <mxPoint x="945" y="450" as="sourcePoint" />
            <mxPoint x="870" y="566.25" as="targetPoint" />
          </mxGeometry>
        </mxCell>
        <mxCell id="8050uvYozBo5ubYNL5DY-47" value="Informe o nome do participante" style="shape=display;whiteSpace=wrap;html=1;fontSize=13;align=right;fillColor=#f5f5f5;fontColor=#333333;strokeColor=#666666;" vertex="1" parent="WIyWlLk6GJQsqaUBKTNV-1">
          <mxGeometry x="840" y="475" width="140" height="50" as="geometry" />
        </mxCell>
        <mxCell id="8050uvYozBo5ubYNL5DY-48" value="tipo_participante" style="shape=manualInput;whiteSpace=wrap;html=1;fontSize=13;verticalAlign=bottom;fillColor=#f8cecc;strokeColor=#b85450;" vertex="1" parent="WIyWlLk6GJQsqaUBKTNV-1">
          <mxGeometry x="1040" y="655" width="119" height="50" as="geometry" />
        </mxCell>
        <mxCell id="8050uvYozBo5ubYNL5DY-51" value="" style="rounded=0;html=1;jettySize=auto;orthogonalLoop=1;fontSize=11;endArrow=block;endFill=0;endSize=8;strokeWidth=1;shadow=0;labelBackgroundColor=none;edgeStyle=orthogonalEdgeStyle;" edge="1" parent="WIyWlLk6GJQsqaUBKTNV-1" source="8050uvYozBo5ubYNL5DY-59" target="8050uvYozBo5ubYNL5DY-48">
          <mxGeometry relative="1" as="geometry">
            <mxPoint x="546" y="580" as="sourcePoint" />
            <mxPoint x="546" y="535" as="targetPoint" />
          </mxGeometry>
        </mxCell>
        <mxCell id="8050uvYozBo5ubYNL5DY-52" value="numero_participante + 1" style="rounded=0;whiteSpace=wrap;html=1;fontSize=13;fillColor=#ffe6cc;strokeColor=#d79b00;" vertex="1" parent="WIyWlLk6GJQsqaUBKTNV-1">
          <mxGeometry x="1190" y="857" width="130" height="48" as="geometry" />
        </mxCell>
        <mxCell id="8050uvYozBo5ubYNL5DY-56" value="" style="rounded=0;html=1;jettySize=auto;orthogonalLoop=1;fontSize=11;endArrow=block;endFill=0;endSize=8;strokeWidth=1;shadow=0;labelBackgroundColor=none;edgeStyle=orthogonalEdgeStyle;" edge="1" parent="WIyWlLk6GJQsqaUBKTNV-1" target="8050uvYozBo5ubYNL5DY-57" source="8050uvYozBo5ubYNL5DY-48">
          <mxGeometry x="0.0909" y="20" relative="1" as="geometry">
            <mxPoint as="offset" />
            <mxPoint x="827" y="695" as="sourcePoint" />
          </mxGeometry>
        </mxCell>
        <mxCell id="8050uvYozBo5ubYNL5DY-57" value="tipo_participante é igual a 1?" style="rhombus;whiteSpace=wrap;html=1;shadow=0;fontFamily=Helvetica;fontSize=12;align=center;strokeWidth=1;spacing=6;spacingTop=-4;fillColor=#dae8fc;strokeColor=#6c8ebf;verticalAlign=middle;" vertex="1" parent="WIyWlLk6GJQsqaUBKTNV-1">
          <mxGeometry x="1038.1299999999999" y="740" width="122.75" height="65" as="geometry" />
        </mxCell>
        <mxCell id="8050uvYozBo5ubYNL5DY-58" value="" style="edgeStyle=orthogonalEdgeStyle;rounded=0;html=1;jettySize=auto;orthogonalLoop=1;fontSize=11;endArrow=block;endFill=0;endSize=8;strokeWidth=1;shadow=0;labelBackgroundColor=none;" edge="1" parent="WIyWlLk6GJQsqaUBKTNV-1" target="8050uvYozBo5ubYNL5DY-59" source="8050uvYozBo5ubYNL5DY-60">
          <mxGeometry x="0.3363" y="-20" relative="1" as="geometry">
            <mxPoint as="offset" />
            <mxPoint x="1030" y="560" as="sourcePoint" />
            <mxPoint x="1109.5" y="626.25" as="targetPoint" />
          </mxGeometry>
        </mxCell>
        <mxCell id="8050uvYozBo5ubYNL5DY-59" value="Informe 1 para Palestrante ou 2 para Participante" style="shape=display;whiteSpace=wrap;html=1;fontSize=13;align=right;fillColor=#f5f5f5;fontColor=#333333;strokeColor=#666666;" vertex="1" parent="WIyWlLk6GJQsqaUBKTNV-1">
          <mxGeometry x="825" y="647.5" width="170" height="65" as="geometry" />
        </mxCell>
        <mxCell id="8050uvYozBo5ubYNL5DY-60" value="nome_participante" style="shape=manualInput;whiteSpace=wrap;html=1;fontSize=13;verticalAlign=bottom;fillColor=#f8cecc;strokeColor=#b85450;" vertex="1" parent="WIyWlLk6GJQsqaUBKTNV-1">
          <mxGeometry x="850.5" y="565" width="119" height="50" as="geometry" />
        </mxCell>
        <mxCell id="8050uvYozBo5ubYNL5DY-61" value="" style="rounded=0;html=1;jettySize=auto;orthogonalLoop=1;fontSize=11;endArrow=block;endFill=0;endSize=8;strokeWidth=1;shadow=0;labelBackgroundColor=none;edgeStyle=orthogonalEdgeStyle;" edge="1" parent="WIyWlLk6GJQsqaUBKTNV-1" target="8050uvYozBo5ubYNL5DY-60" source="8050uvYozBo5ubYNL5DY-47">
          <mxGeometry relative="1" as="geometry">
            <mxPoint x="839.13" y="677.5" as="sourcePoint" />
            <mxPoint x="425.13" y="687.5" as="targetPoint" />
          </mxGeometry>
        </mxCell>
        <mxCell id="8050uvYozBo5ubYNL5DY-62" value="" style="rounded=0;html=1;jettySize=auto;orthogonalLoop=1;fontSize=11;endArrow=block;endFill=0;endSize=8;strokeWidth=1;shadow=0;labelBackgroundColor=none;edgeStyle=orthogonalEdgeStyle;" edge="1" parent="WIyWlLk6GJQsqaUBKTNV-1" source="8050uvYozBo5ubYNL5DY-57" target="8050uvYozBo5ubYNL5DY-77">
          <mxGeometry x="0.0909" y="20" relative="1" as="geometry">
            <mxPoint as="offset" />
            <mxPoint x="1119.52" y="700" as="sourcePoint" />
            <mxPoint x="1350" y="780" as="targetPoint" />
          </mxGeometry>
        </mxCell>
        <mxCell id="8050uvYozBo5ubYNL5DY-63" value="Sim&amp;nbsp;" style="edgeLabel;html=1;align=center;verticalAlign=middle;resizable=0;points=[];fontSize=13;" vertex="1" connectable="0" parent="8050uvYozBo5ubYNL5DY-62">
          <mxGeometry x="0.0824" y="2" relative="1" as="geometry">
            <mxPoint x="-4" y="-10" as="offset" />
          </mxGeometry>
        </mxCell>
        <mxCell id="8050uvYozBo5ubYNL5DY-64" value="Não" style="rounded=0;html=1;jettySize=auto;orthogonalLoop=1;fontSize=11;endArrow=block;endFill=0;endSize=8;strokeWidth=1;shadow=0;labelBackgroundColor=none;edgeStyle=orthogonalEdgeStyle;" edge="1" parent="WIyWlLk6GJQsqaUBKTNV-1" target="8050uvYozBo5ubYNL5DY-65" source="8050uvYozBo5ubYNL5DY-57">
          <mxGeometry x="0.3333" y="20" relative="1" as="geometry">
            <mxPoint as="offset" />
            <mxPoint x="795" y="775" as="sourcePoint" />
            <mxPoint x="728" y="857" as="targetPoint" />
          </mxGeometry>
        </mxCell>
        <mxCell id="8050uvYozBo5ubYNL5DY-65" value="tipo_participante é igual a 2?" style="rhombus;whiteSpace=wrap;html=1;shadow=0;fontFamily=Helvetica;fontSize=12;align=center;strokeWidth=1;spacing=6;spacingTop=-4;fillColor=#dae8fc;strokeColor=#6c8ebf;verticalAlign=middle;" vertex="1" parent="WIyWlLk6GJQsqaUBKTNV-1">
          <mxGeometry x="1044.5" y="842" width="110" height="80" as="geometry" />
        </mxCell>
        <mxCell id="8050uvYozBo5ubYNL5DY-68" value="Não" style="rounded=0;html=1;jettySize=auto;orthogonalLoop=1;fontSize=11;endArrow=block;endFill=0;endSize=8;strokeWidth=1;shadow=0;labelBackgroundColor=none;edgeStyle=orthogonalEdgeStyle;" edge="1" parent="WIyWlLk6GJQsqaUBKTNV-1" target="8050uvYozBo5ubYNL5DY-70" source="8050uvYozBo5ubYNL5DY-65">
          <mxGeometry x="0.3333" y="20" relative="1" as="geometry">
            <mxPoint as="offset" />
            <mxPoint x="930" y="1009.997352342159" as="sourcePoint" />
            <mxPoint x="930" y="1040" as="targetPoint" />
          </mxGeometry>
        </mxCell>
        <mxCell id="8050uvYozBo5ubYNL5DY-70" value="Opção incorreta." style="shape=display;whiteSpace=wrap;html=1;fontSize=13;align=right;fillColor=#f5f5f5;fontColor=#333333;strokeColor=#666666;" vertex="1" parent="WIyWlLk6GJQsqaUBKTNV-1">
          <mxGeometry x="1039.5" y="960" width="119.5" height="50" as="geometry" />
        </mxCell>
        <mxCell id="8050uvYozBo5ubYNL5DY-71" value="" style="rounded=0;html=1;jettySize=auto;orthogonalLoop=1;fontSize=11;endArrow=block;endFill=0;endSize=8;strokeWidth=1;shadow=0;labelBackgroundColor=none;edgeStyle=orthogonalEdgeStyle;entryX=0;entryY=0;entryDx=90;entryDy=65;entryPerimeter=0;" edge="1" parent="WIyWlLk6GJQsqaUBKTNV-1" source="8050uvYozBo5ubYNL5DY-70" target="8050uvYozBo5ubYNL5DY-59">
          <mxGeometry relative="1" as="geometry">
            <mxPoint x="1025" y="690" as="sourcePoint" />
            <mxPoint x="1070" y="690" as="targetPoint" />
            <Array as="points">
              <mxPoint x="915" y="985" />
            </Array>
          </mxGeometry>
        </mxCell>
        <mxCell id="8050uvYozBo5ubYNL5DY-73" value="" style="rounded=0;html=1;jettySize=auto;orthogonalLoop=1;fontSize=11;endArrow=block;endFill=0;endSize=8;strokeWidth=1;shadow=0;labelBackgroundColor=none;edgeStyle=orthogonalEdgeStyle;" edge="1" parent="WIyWlLk6GJQsqaUBKTNV-1" source="8050uvYozBo5ubYNL5DY-65" target="8050uvYozBo5ubYNL5DY-52">
          <mxGeometry x="0.0909" y="20" relative="1" as="geometry">
            <mxPoint as="offset" />
            <mxPoint x="1191.8799999999999" y="873.5" as="sourcePoint" />
            <mxPoint x="1241" y="873.5" as="targetPoint" />
          </mxGeometry>
        </mxCell>
        <mxCell id="8050uvYozBo5ubYNL5DY-74" value="Sim&amp;nbsp;" style="edgeLabel;html=1;align=center;verticalAlign=middle;resizable=0;points=[];fontSize=13;" vertex="1" connectable="0" parent="8050uvYozBo5ubYNL5DY-73">
          <mxGeometry x="0.0824" y="2" relative="1" as="geometry">
            <mxPoint x="-4" y="-10" as="offset" />
          </mxGeometry>
        </mxCell>
        <mxCell id="8050uvYozBo5ubYNL5DY-77" value="Cadastro de Palestrante realizado!" style="shape=display;whiteSpace=wrap;html=1;fontSize=13;align=right;fillColor=#f5f5f5;fontColor=#333333;strokeColor=#666666;" vertex="1" parent="WIyWlLk6GJQsqaUBKTNV-1">
          <mxGeometry x="1200" y="740" width="160" height="65" as="geometry" />
        </mxCell>
        <mxCell id="8050uvYozBo5ubYNL5DY-78" value="" style="rounded=0;html=1;jettySize=auto;orthogonalLoop=1;fontSize=11;endArrow=block;endFill=0;endSize=8;strokeWidth=1;shadow=0;labelBackgroundColor=none;edgeStyle=orthogonalEdgeStyle;" edge="1" parent="WIyWlLk6GJQsqaUBKTNV-1" source="8050uvYozBo5ubYNL5DY-77" target="8050uvYozBo5ubYNL5DY-0">
          <mxGeometry x="0.0909" y="20" relative="1" as="geometry">
            <mxPoint as="offset" />
            <mxPoint x="1021.25" y="337" as="sourcePoint" />
            <mxPoint x="270" y="252" as="targetPoint" />
            <Array as="points">
              <mxPoint x="1300" y="120" />
              <mxPoint x="250" y="120" />
            </Array>
          </mxGeometry>
        </mxCell>
        <mxCell id="8050uvYozBo5ubYNL5DY-81" value="" style="rounded=0;html=1;jettySize=auto;orthogonalLoop=1;fontSize=11;endArrow=block;endFill=0;endSize=8;strokeWidth=1;shadow=0;labelBackgroundColor=none;edgeStyle=orthogonalEdgeStyle;" edge="1" parent="WIyWlLk6GJQsqaUBKTNV-1" target="8050uvYozBo5ubYNL5DY-82" source="8050uvYozBo5ubYNL5DY-52">
          <mxGeometry x="0.0909" y="20" relative="1" as="geometry">
            <mxPoint as="offset" />
            <mxPoint x="1491.3899999999999" y="800" as="sourcePoint" />
          </mxGeometry>
        </mxCell>
        <mxCell id="8050uvYozBo5ubYNL5DY-82" value="&lt;br&gt;numero_participante &amp;gt; 100?" style="rhombus;whiteSpace=wrap;html=1;shadow=0;fontFamily=Helvetica;fontSize=12;align=center;strokeWidth=1;spacing=6;spacingTop=-4;fillColor=#dae8fc;strokeColor=#6c8ebf;verticalAlign=middle;" vertex="1" parent="WIyWlLk6GJQsqaUBKTNV-1">
          <mxGeometry x="1190" y="940" width="126.38" height="70" as="geometry" />
        </mxCell>
        <mxCell id="8050uvYozBo5ubYNL5DY-83" value="Sim" style="rounded=0;html=1;jettySize=auto;orthogonalLoop=1;fontSize=11;endArrow=block;endFill=0;endSize=8;strokeWidth=1;shadow=0;labelBackgroundColor=none;edgeStyle=orthogonalEdgeStyle;" edge="1" parent="WIyWlLk6GJQsqaUBKTNV-1" target="8050uvYozBo5ubYNL5DY-84" source="8050uvYozBo5ubYNL5DY-82">
          <mxGeometry x="0.3547" y="22" relative="1" as="geometry">
            <mxPoint as="offset" />
            <mxPoint x="1490" y="889.9955804480651" as="sourcePoint" />
            <mxPoint x="1399.06" y="973.54" as="targetPoint" />
          </mxGeometry>
        </mxCell>
        <mxCell id="8050uvYozBo5ubYNL5DY-84" value="Cadastro não será permitido por ter excedido o limite." style="shape=display;whiteSpace=wrap;html=1;fontSize=13;align=right;fillColor=#f5f5f5;fontColor=#333333;strokeColor=#666666;" vertex="1" parent="WIyWlLk6GJQsqaUBKTNV-1">
          <mxGeometry x="1347.19" y="947.5" width="148.37" height="50" as="geometry" />
        </mxCell>
        <mxCell id="8050uvYozBo5ubYNL5DY-85" value="" style="rounded=0;html=1;jettySize=auto;orthogonalLoop=1;fontSize=11;endArrow=block;endFill=0;endSize=8;strokeWidth=1;shadow=0;labelBackgroundColor=none;edgeStyle=orthogonalEdgeStyle;" edge="1" parent="WIyWlLk6GJQsqaUBKTNV-1" target="8050uvYozBo5ubYNL5DY-87" source="8050uvYozBo5ubYNL5DY-82">
          <mxGeometry x="0.0909" y="20" relative="1" as="geometry">
            <mxPoint as="offset" />
            <mxPoint x="1482.7522307692304" y="884.48" as="sourcePoint" />
            <mxPoint x="1671.91" y="892" as="targetPoint" />
            <Array as="points" />
          </mxGeometry>
        </mxCell>
        <mxCell id="8050uvYozBo5ubYNL5DY-86" value="Não" style="edgeLabel;html=1;align=center;verticalAlign=middle;resizable=0;points=[];fontSize=13;" vertex="1" connectable="0" parent="8050uvYozBo5ubYNL5DY-85">
          <mxGeometry x="0.0824" y="2" relative="1" as="geometry">
            <mxPoint x="-25" y="-10" as="offset" />
          </mxGeometry>
        </mxCell>
        <mxCell id="8050uvYozBo5ubYNL5DY-87" value="Cadastro de Participante realizado!" style="shape=display;whiteSpace=wrap;html=1;fontSize=13;align=right;fillColor=#f5f5f5;fontColor=#333333;strokeColor=#666666;" vertex="1" parent="WIyWlLk6GJQsqaUBKTNV-1">
          <mxGeometry x="1194.15" y="1050" width="118.09" height="53.5" as="geometry" />
        </mxCell>
        <mxCell id="8050uvYozBo5ubYNL5DY-88" value="" style="rounded=0;html=1;jettySize=auto;orthogonalLoop=1;fontSize=11;endArrow=block;endFill=0;endSize=8;strokeWidth=1;shadow=0;labelBackgroundColor=none;edgeStyle=orthogonalEdgeStyle;exitX=0;exitY=0;exitDx=80.23125;exitDy=0;exitPerimeter=0;" edge="1" parent="WIyWlLk6GJQsqaUBKTNV-1" source="8050uvYozBo5ubYNL5DY-84" target="8050uvYozBo5ubYNL5DY-0">
          <mxGeometry x="0.0909" y="20" relative="1" as="geometry">
            <mxPoint as="offset" />
            <mxPoint x="1285" y="750" as="sourcePoint" />
            <mxPoint x="235" y="282" as="targetPoint" />
            <Array as="points">
              <mxPoint x="1427" y="100" />
              <mxPoint x="230" y="100" />
            </Array>
          </mxGeometry>
        </mxCell>
        <mxCell id="8050uvYozBo5ubYNL5DY-89" value="" style="rounded=0;html=1;jettySize=auto;orthogonalLoop=1;fontSize=11;endArrow=block;endFill=0;endSize=8;strokeWidth=1;shadow=0;labelBackgroundColor=none;edgeStyle=orthogonalEdgeStyle;" edge="1" parent="WIyWlLk6GJQsqaUBKTNV-1" source="8050uvYozBo5ubYNL5DY-87">
          <mxGeometry x="0.0909" y="20" relative="1" as="geometry">
            <mxPoint as="offset" />
            <mxPoint x="1261" y="760" as="sourcePoint" />
            <mxPoint x="211" y="272" as="targetPoint" />
            <Array as="points">
              <mxPoint x="1530" y="1077" />
              <mxPoint x="1530" y="80" />
              <mxPoint x="211" y="80" />
            </Array>
          </mxGeometry>
        </mxCell>
      </root>
    </mxGraphModel>
  </diagram>
</mxfile>
